<svg id="Layer_1" height="512" viewBox="0 0 512 512" width="512" xmlns="http://www.w3.org/2000/svg" data-name="Layer 1"><g fill="#d4e1f4"><path d="m404.333 109.6h19v326.9h-19z"/><path d="m292.117 151.312h19v285.188h-19z"/><path d="m179.901 193.023h19v243.477h-19z"/><path d="m67.685 248.231h19v188.269h-19z"/></g><path d="m61.685 448.5a6 6 0 0 0 6-6v-194.269h52.923v194.269a6 6 0 0 0 12 0v-197.134a9.124 9.124 0 0 0 -9.093-9.135h-58.738a9.124 9.124 0 0 0 -9.092 9.135v197.134a6 6 0 0 0 6 6z" fill="#0635c9"/><path d="m173.9 448.5a6 6 0 0 0 6-6v-249.477h52.923v249.477a6 6 0 0 0 12 0v-252.342a9.124 9.124 0 0 0 -9.093-9.135h-58.736a9.124 9.124 0 0 0 -9.093 9.135v252.342a6 6 0 0 0 5.999 6z" fill="#0635c9"/><path d="m286.117 448.5a6 6 0 0 0 6-6v-291.188h52.924v291.188a6 6 0 0 0 12 0v-294.053a9.125 9.125 0 0 0 -9.094-9.135h-58.737a9.124 9.124 0 0 0 -9.093 9.135v294.053a6 6 0 0 0 6 6z" fill="#0635c9"/><path d="m398.333 448.5a6 6 0 0 0 6-6v-332.9h52.924v332.9a6 6 0 0 0 12 0v-335.765a9.124 9.124 0 0 0 -9.093-9.135h-58.737a9.125 9.125 0 0 0 -9.094 9.135v335.765a6 6 0 0 0 6 6z" fill="#0635c9"/><path d="m494.5 436.5h-457a14.006 14.006 0 0 1 -14-13.982v-353.018a6 6 0 0 0 -12 0v353.018a26.02 26.02 0 0 0 26 25.982h457a6 6 0 0 0 0-12z" fill="#1ae5be"/></svg>