<svg height="480pt" viewBox="0 0 480 480" width="480pt" xmlns="http://www.w3.org/2000/svg"><path d="m240 0c-132.546875 0-240 107.453125-240 240s107.453125 240 240 240 240-107.453125 240-240c-.148438-132.484375-107.515625-239.851562-240-240zm0 464c-123.710938 0-224-100.289062-224-224s100.289062-224 224-224 224 100.289062 224 224c-.140625 123.652344-100.347656 223.859375-224 224zm0 0"/><path d="m240 128c-66.167969 0-120 46.65625-120 104s53.832031 104 120 104c12.488281-.011719 24.917969-1.738281 36.9375-5.128906l72.871094 20.800781c.710937.207031 1.449218.320313 2.191406.328125 2.78125.015625 5.367188-1.414062 6.835938-3.773438 1.46875-2.363281 1.605468-5.316406.363281-7.800781l-23.054688-46.113281c15.195313-17.222656 23.664063-39.347656 23.855469-62.3125 0-57.34375-53.832031-104-120-104zm79.335938 168.558594 17.375 34.753906-57.597657-16.464844c-.71875-.199218-1.457031-.300781-2.203125-.304687-.777344 0-1.550781.113281-2.292968.335937-11.230469 3.382813-22.890626 5.109375-34.617188 5.121094-57.34375 0-104-39.480469-104-88s46.65625-88 104-88 104 39.480469 104 88c-.269531 20.800781-8.617188 40.679688-23.273438 55.441406-2.34375 2.4375-2.902343 6.089844-1.390624 9.117188zm0 0"/><path d="m200 232c0 8.835938-7.164062 16-16 16s-16-7.164062-16-16 7.164062-16 16-16 16 7.164062 16 16zm0 0"/><path d="m256 232c0 8.835938-7.164062 16-16 16s-16-7.164062-16-16 7.164062-16 16-16 16 7.164062 16 16zm0 0"/><path d="m312 232c0 8.835938-7.164062 16-16 16s-16-7.164062-16-16 7.164062-16 16-16 16 7.164062 16 16zm0 0"/></svg>