<?xml version="1.0"?>
<svg xmlns="http://www.w3.org/2000/svg" id="Layer_1" data-name="Layer 1" viewBox="0 0 512 512" width="512" height="512"><title>Optimization</title><path d="M241.36,311.149A228.964,228.964,0,0,1,118.243,275.4a230.351,230.351,0,0,1-81.9-90.255,229.961,229.961,0,0,1,32.905-48.4,230.112,230.112,0,0,0-52.9,68.4,230.351,230.351,0,0,0,81.9,90.255,230.279,230.279,0,0,0,189.325,26.055l3.193-15.645A230.545,230.545,0,0,1,241.36,311.149Z" style="fill:#d4e1f4"/><path d="M411.949,236.755l-4.571-.933-.43,1.416Q409.422,236.921,411.949,236.755Z" style="fill:#d4e1f4"/><path d="M375.075,300.134a40.416,40.416,0,1,0,56,11.431A40.149,40.149,0,0,0,375.075,300.134Zm50.127,39.4a28.408,28.408,0,1,1-4.137-21.351A28.231,28.231,0,0,1,425.2,339.534Z" style="fill:#1ae5be"/><path d="M298.453,324.335a6,6,0,0,0-7.534-3.9A229.838,229.838,0,0,1,16.345,205.149a229.772,229.772,0,0,1,410.03,0,230.076,230.076,0,0,1-13.617,23.344,6,6,0,0,0,9.992,6.647,242.449,242.449,0,0,0,15.716-27.348,6,6,0,0,0,0-5.285,241.774,241.774,0,0,0-434.212,0,6,6,0,0,0,0,5.285A242.346,242.346,0,0,0,91.8,305.529a242.3,242.3,0,0,0,202.747,26.339A6,6,0,0,0,298.453,324.335Z" style="fill:#0635c9"/><path d="M180.191,161.5a58.93,58.93,0,1,0,99.383,29.755,6,6,0,0,0-10-3.149,20.457,20.457,0,0,1-28.5-29.352c.395-.4.833-.8,1.338-1.222a6,6,0,0,0-1.971-10.283A58.607,58.607,0,0,0,180.191,161.5Zm52.4,34.685A32.268,32.268,0,0,0,268.8,202.9a47.062,47.062,0,1,1-41.139-46.316,32.495,32.495,0,0,0,4.933,39.6Z" style="fill:#0635c9"/><path d="M130.672,205.149a92.011,92.011,0,1,0,92.011-92.01A92.115,92.115,0,0,0,130.672,205.149Zm172.022,0a80.011,80.011,0,1,1-80.011-80.01A80.1,80.1,0,0,1,302.694,205.149Z" style="fill:#0635c9"/><path d="M504.105,333.978l-17.6-5.35a90.086,90.086,0,0,0-4.327-23.227l14.386-11.636a6,6,0,0,0,1.232-7.974l-16.86-25.509a6,6,0,0,0-7.818-1.991l-16.342,8.674a88.381,88.381,0,0,0-19.671-13.128l1.971-18.241a6,6,0,0,0-4.765-6.524l-29.885-6.1a6,6,0,0,0-6.941,4.133l-5.349,17.6a90.009,90.009,0,0,0-23.227,4.327l-11.637-14.387a6,6,0,0,0-7.974-1.233l-25.508,16.86a6,6,0,0,0-1.991,7.819l8.674,16.343a88.306,88.306,0,0,0-13.128,19.67l-18.242-1.97a5.991,5.991,0,0,0-6.523,4.764l-6.1,29.885a6,6,0,0,0,4.134,6.941l17.6,5.349a90.06,90.06,0,0,0,4.328,23.227l-14.387,11.638a6,6,0,0,0-1.232,7.973l16.86,25.508a6,6,0,0,0,7.819,1.991l16.341-8.673a88.239,88.239,0,0,0,19.671,13.127l-1.971,18.242a6,6,0,0,0,4.766,6.524l29.885,6.1a5.989,5.989,0,0,0,6.94-4.133l5.35-17.6a90.068,90.068,0,0,0,23.231-4.329L437.3,432.834a6,6,0,0,0,7.969,1.228L470.778,417.2a6,6,0,0,0,1.991-7.818L464.1,393.04a88.306,88.306,0,0,0,13.128-19.67l18.241,1.97a5.986,5.986,0,0,0,6.516-4.728l6.251-29.657A6,6,0,0,0,504.105,333.978Zm-12.748,28.849L474.2,360.974a6,6,0,0,0-6.174,3.635,75.807,75.807,0,0,1-15.52,23.285,6,6,0,0,0-1.008,7l8.118,15.3-16.422,10.855-10.738-13.243a6,6,0,0,0-6.836-1.814,78.219,78.219,0,0,1-27.6,5.154,6,6,0,0,0-5.673,4.254l-5.009,16.48-19.182-3.915,1.85-17.124a6,6,0,0,0-3.635-6.174,75.768,75.768,0,0,1-23.285-15.521,6,6,0,0,0-7.006-1.007l-15.3,8.117-10.85-16.416L323.4,368.95a6,6,0,0,0,1.818-6.841,78.207,78.207,0,0,1-5.154-27.594,6,6,0,0,0-4.254-5.674l-16.479-5.01,3.915-19.181,17.124,1.85a6,6,0,0,0,6.174-3.636,75.8,75.8,0,0,1,15.52-23.284,6,6,0,0,0,1.008-7.006l-8.118-15.3,16.416-10.85,10.89,13.463a6,6,0,0,0,6.841,1.818,78.161,78.161,0,0,1,27.594-5.153,6,6,0,0,0,5.675-4.255l5.008-16.48,19.182,3.915-1.85,17.124a6,6,0,0,0,3.636,6.174,75.758,75.758,0,0,1,23.284,15.521,6,6,0,0,0,7.007,1.007l15.294-8.118,10.851,16.416-13.463,10.89a6,6,0,0,0-1.818,6.841,78.2,78.2,0,0,1,5.154,27.6,6,6,0,0,0,4.254,5.673l16.446,5Z" style="fill:#1ae5be"/></svg>
