<?xml version="1.0"?>
<svg xmlns="http://www.w3.org/2000/svg" viewBox="0 0 512 512" width="512" height="512"><g id="outline"><path d="M256,496A240,240,0,0,0,425.705,86.294,240,240,0,1,0,86.3,425.706,238.426,238.426,0,0,0,256,496ZM97.608,97.608A224,224,0,0,1,414.392,414.392,224,224,0,0,1,97.608,97.608Z"/><path d="M143.091,430.715a208.4,208.4,0,0,0,21.385,12.117l7.048-14.364a192.3,192.3,0,0,1-19.736-11.183Z"/><path d="M256,448a191.7,191.7,0,0,1-61.441-10.039l-5.118,15.16A207.7,207.7,0,0,0,256,464c114.691,0,208-93.309,208-208H448C448,361.869,361.869,448,256,448Z"/><path d="M104,400h48a8,8,0,0,0,8-8h29.629a103.365,103.365,0,0,0,55.211,16h9.291A23.943,23.943,0,0,0,272,416h32a23.982,23.982,0,0,0,20.9-35.777A23.959,23.959,0,0,0,329.869,344a23.943,23.943,0,0,0,0-32A23.984,23.984,0,0,0,312,272H288V233.14a25.136,25.136,0,0,0-50.019-3.563l-1.731,12.1A53.96,53.96,0,0,1,182.84,288H160v-8a8,8,0,0,0-8-8H104a8,8,0,0,0-8,8V392A8,8,0,0,0,104,400Zm216-72a8.009,8.009,0,0,1-8,8H280a8,8,0,0,1,0-16h32A8.009,8.009,0,0,1,320,328Zm0,32a8.009,8.009,0,0,1-8,8H280a8,8,0,0,1,0-16h32A8.009,8.009,0,0,1,320,360Zm-16,40H272a8,8,0,0,1,0-16h32a8,8,0,0,1,0,16Zm16-104a8.009,8.009,0,0,1-8,8H280a8,8,0,0,1,0-16h32A8.009,8.009,0,0,1,320,296Zm-137.16,8a69.963,69.963,0,0,0,69.249-60.058l1.732-12.107A9.136,9.136,0,0,1,272,233.14v40.236A23.977,23.977,0,0,0,262.131,312a23.943,23.943,0,0,0,0,32,23.931,23.931,0,0,0-3.03,27.777A24,24,0,0,0,248,392h-3.16a87.338,87.338,0,0,1-48.4-14.654A7.994,7.994,0,0,0,192,376H160V304ZM112,288h32v96H112Z"/><path d="M206.393,123.664l19.246,13.983-7.352,22.627a12,12,0,0,0,18.466,13.416L256,159.707l19.246,13.982a12,12,0,0,0,18.467-13.416l-7.352-22.626,19.245-13.982a12,12,0,0,0-7.051-21.709h-23.79L267.413,79.33h0a12,12,0,0,0-22.826,0l-7.352,22.626h-23.79a12,12,0,0,0-7.052,21.708Zm33.749-5.708a11.973,11.973,0,0,0,11.413-8.292L256,95.982l4.446,13.684a11.971,11.971,0,0,0,11.412,8.29h14.385L274.6,126.413a11.973,11.973,0,0,0-4.358,13.415l4.445,13.681-11.636-8.454a11.971,11.971,0,0,0-14.109,0l-11.637,8.455,4.445-13.682a11.973,11.973,0,0,0-4.359-13.415l-11.638-8.456Z"/><path d="M324.954,188.626,344.2,202.609l-7.351,22.627a11.995,11.995,0,0,0,18.465,13.416l19.247-13.984,19.247,13.983a12,12,0,0,0,18.466-13.416l-7.351-22.626,19.247-13.984a12,12,0,0,0-7.054-21.708H393.326l-7.351-22.625a12,12,0,0,0-22.826,0l-7.35,22.625H332.008a12,12,0,0,0-7.054,21.709Zm33.75-5.709a11.973,11.973,0,0,0,11.413-8.291l4.445-13.681,4.446,13.68a11.966,11.966,0,0,0,11.412,8.292h14.387l-11.638,8.456a11.969,11.969,0,0,0-4.36,13.417l4.445,13.682-11.638-8.455a11.968,11.968,0,0,0-14.107,0l-11.639,8.456,4.444-13.68a11.967,11.967,0,0,0-4.357-13.418l-11.639-8.457Z"/><path d="M100.954,196.626,120.2,210.609l-7.351,22.627a11.995,11.995,0,0,0,18.465,13.416l19.247-13.984,19.247,13.983a12,12,0,0,0,18.466-13.416l-7.351-22.626,19.247-13.984a12,12,0,0,0-7.054-21.708H169.326l-7.351-22.625a12,12,0,0,0-22.826,0l-7.35,22.625H108.008a12,12,0,0,0-7.054,21.709Zm33.75-5.709a11.973,11.973,0,0,0,11.413-8.291l4.445-13.681,4.446,13.68a11.966,11.966,0,0,0,11.412,8.292h14.387l-11.638,8.456a11.969,11.969,0,0,0-4.36,13.417l4.445,13.682-11.638-8.455a11.968,11.968,0,0,0-14.107,0l-11.639,8.456,4.444-13.68a11.967,11.967,0,0,0-4.357-13.418l-11.639-8.457Z"/></g></svg>
