<svg id="Layer_1" height="512" viewBox="0 0 512 512" width="512" xmlns="http://www.w3.org/2000/svg" data-name="Layer 1"><path d="m119.024 455.342h20v39.658h-20z" fill="#d4e1f4"/><path d="m207.728 169.948a6 6 0 0 0 -.19-1.472v-17.566a67.283 67.283 0 0 1 2.144-16.867 5.918 5.918 0 0 0 .7-2.471 69.575 69.575 0 0 1 56.926-48.472 71.178 71.178 0 0 0 -10.008-.72c-31.631 0-58.4 20.794-66.915 49.192a5.918 5.918 0 0 1 -.7 2.471 67.283 67.283 0 0 0 -2.144 16.867v17.566a5.8 5.8 0 0 1 0 2.944v34.852h20v-34.852a6 6 0 0 0 .187-1.472z" fill="#d4e1f4"/><path d="m157.78 356.132c0-61.468 48.279-112.054 109.52-117.065-3.3-.27-6.632-.415-10-.415-65.9 0-119.52 52.7-119.52 117.48a116.6 116.6 0 0 0 39.456 87.21h20a116.6 116.6 0 0 1 -39.456-87.21z" fill="#d4e1f4"/><path d="m195.538 162.854v-11.944a79.535 79.535 0 0 1 1.1-13.094 13.294 13.294 0 0 0 -1.1 25.038z" fill="#d4e1f4"/><path d="m256.69 218.272h-20v9.974a134.109 134.109 0 0 1 20-1.582z" fill="#d4e1f4"/><path d="m277.3 226.652c-3.365 0-6.7.134-10 .381q5.365.4 10.609 1.213v-1.582c-.204-.001-.409-.012-.609-.012z" fill="#d4e1f4"/><path d="m441.562 315.243-17.78-49.01a8.058 8.058 0 0 0 -7.557-5.3h-69.882a132.022 132.022 0 0 0 -56.434-30.249v-18.412h-12v15.974a134.031 134.031 0 0 0 -41.219 0v-15.974h-12v18.411a132.024 132.024 0 0 0 -56.433 30.249h-69.673a8.035 8.035 0 0 0 -7.356 4.8l-20.508 46.587a22.888 22.888 0 0 0 -18.762 22.488 6 6 0 0 0 12 0 10.861 10.861 0 0 1 10.819-10.859h.029a10.862 10.862 0 0 1 10.831 10.859 6 6 0 0 0 12 0 22.891 22.891 0 0 0 -14.364-21.221l17.9-40.654h55.443a127.947 127.947 0 0 0 14.458 180.968 6 6 0 1 0 7.8-9.119 116.655 116.655 0 0 1 -41.095-88.65c0-64.778 53.616-117.48 119.52-117.48s119.52 52.7 119.52 117.48a116.655 116.655 0 0 1 -41.095 88.65 6 6 0 1 0 7.8 9.119 127.946 127.946 0 0 0 14.463-180.969h55.459l15.726 43.35a22.9 22.9 0 0 0 -14.81 21.4 6 6 0 0 0 12 0 10.862 10.862 0 0 1 10.824-10.859h.029a10.861 10.861 0 0 1 10.826 10.859 6 6 0 0 0 12 0 22.889 22.889 0 0 0 -18.479-22.438z" fill="#0635c9"/><g fill="#1ae5be"><path d="m183.775 218.272h147.049a8.228 8.228 0 0 0 8.238-8.2v-34.696a25.371 25.371 0 0 0 -4.313-50.222 81.72 81.72 0 0 0 -71.449-54.534v-18.3a24.128 24.128 0 0 0 18.328-23.29 24.33 24.33 0 0 0 -48.656 0 24.127 24.127 0 0 0 18.328 23.288v18.3a81.717 81.717 0 0 0 -71.448 54.534 25.372 25.372 0 0 0 -4.314 50.222v34.695a8.228 8.228 0 0 0 8.237 8.203zm163.6-67.735a13.425 13.425 0 0 1 -8.311 12.317v-11.944a79.536 79.536 0 0 0 -1.1-13.094 13.463 13.463 0 0 1 9.409 12.721zm-102.403-121.507a12.332 12.332 0 0 1 24.656 0 12.332 12.332 0 0 1 -24.656 0zm12.328 53.35c38.467 0 69.762 30.742 69.762 68.53v55.362h-139.524v-34.852a5.8 5.8 0 0 0 0-2.944v-17.566a67.283 67.283 0 0 1 2.144-16.867 5.918 5.918 0 0 0 .7-2.471c8.518-28.398 35.287-49.192 66.918-49.192zm-90.072 68.157a13.461 13.461 0 0 1 9.408-12.721 79.535 79.535 0 0 0 -1.1 13.094v11.944a13.426 13.426 0 0 1 -8.308-12.317z"/><path d="m223.079 150.326a18.35 18.35 0 1 0 -18.554-18.348 18.473 18.473 0 0 0 18.554 18.348zm0-24.7a6.352 6.352 0 1 1 -6.554 6.35 6.463 6.463 0 0 1 6.554-6.348z"/><path d="m291.521 150.326a18.35 18.35 0 1 0 -18.553-18.348 18.472 18.472 0 0 0 18.553 18.348zm0-24.7a6.352 6.352 0 1 1 -6.553 6.35 6.462 6.462 0 0 1 6.553-6.348z"/><path d="m223.174 180.822a6 6 0 0 0 6 6h56.252a6 6 0 0 0 0-12h-56.252a6 6 0 0 0 -6 6z"/><path d="m399.575 443.342h-284.551a8.009 8.009 0 0 0 -8 8v47.658a8.009 8.009 0 0 0 8 8h284.551a8.009 8.009 0 0 0 8-8v-47.658a8.009 8.009 0 0 0 -8-8zm-4 51.658h-276.551v-39.658h276.551z"/><path d="m152.8 491.424a16.346 16.346 0 1 0 -16.516-16.345 16.449 16.449 0 0 0 16.516 16.345zm0-20.69a4.348 4.348 0 1 1 -4.516 4.345 4.438 4.438 0 0 1 4.516-4.345z"/><path d="m222.467 491.424a16.346 16.346 0 1 0 -16.516-16.345 16.449 16.449 0 0 0 16.516 16.345zm0-20.69a4.348 4.348 0 1 1 -4.516 4.345 4.438 4.438 0 0 1 4.516-4.345z"/><path d="m292.133 491.424a16.346 16.346 0 1 0 -16.516-16.345 16.449 16.449 0 0 0 16.516 16.345zm0-20.69a4.348 4.348 0 1 1 -4.516 4.345 4.438 4.438 0 0 1 4.516-4.345z"/><path d="m361.8 491.424a16.346 16.346 0 1 0 -16.516-16.345 16.449 16.449 0 0 0 16.516 16.345zm0-20.69a4.348 4.348 0 1 1 -4.516 4.345 4.438 4.438 0 0 1 4.516-4.345z"/></g></svg>