<svg id="Layer_1_1_" enable-background="new 0 0 64 64" height="512" viewBox="0 0 64 64" width="512" xmlns="http://www.w3.org/2000/svg"><path d="m44.075 6.731.863-1.805c-1.242-.595-2.536-1.106-3.845-1.522l-.605 1.906c1.221.388 2.428.866 3.587 1.421z"/><path d="m32.898 4.014c1.289.041 2.581.171 3.841.386l.336-1.971c-1.349-.23-2.732-.37-4.112-.413z"/><path d="m47.433 8.633c1.014.67 1.993 1.415 2.911 2.213l1.312-1.51c-.984-.855-2.034-1.653-3.12-2.371z"/><path d="m9 19c0-.722-.267-1.377-.694-1.895 3.834-6.098 9.958-10.558 16.934-12.285v.001c1.244-.309 2.522-.532 3.801-.667l-.209-1.988c-1.369.144-2.739.384-4.072.714v-.001c-7.483 1.852-14.051 6.639-18.158 13.182-.194-.04-.396-.061-.602-.061-1.654 0-3 1.346-3 3s1.346 3 3 3 3-1.346 3-3zm-3 1c-.552 0-1-.448-1-1s.448-1 1-1 1 .448 1 1-.448 1-1 1z"/><path d="m26.925 61.571c1.349.23 2.732.37 4.112.413l.064-1.998c-1.289-.041-2.581-.171-3.841-.386z"/><path d="m19.062 59.073c1.242.595 2.536 1.106 3.845 1.522l.605-1.906c-1.221-.388-2.428-.865-3.587-1.421z"/><path d="m12.344 54.664c.984.855 2.034 1.653 3.12 2.371l1.104-1.668c-1.014-.67-1.993-1.415-2.911-2.213z"/><path d="m58 42c-1.654 0-3 1.346-3 3 0 .722.267 1.377.694 1.895-3.834 6.098-9.958 10.558-16.934 12.285v-.001c-1.244.309-2.522.532-3.801.667l.209 1.988c1.369-.144 2.739-.384 4.072-.714v.001c7.483-1.852 14.051-6.639 18.157-13.182.195.04.397.061.603.061 1.654 0 3-1.346 3-3s-1.346-3-3-3zm0 4c-.552 0-1-.448-1-1s.448-1 1-1 1 .448 1 1-.448 1-1 1z"/><path d="m56 32.002c0-.002 0-.002 0-.004-.001-13.232-10.767-23.998-24-23.998s-23.999 10.766-24 23.998v.004c.001 13.232 10.767 23.998 24 23.998s23.999-10.766 24-23.998zm-24-22.002c11.166 0 20.409 8.364 21.81 19.154-3.647-3.813-11.948-11.154-21.81-11.154s-18.163 7.341-21.81 11.154c1.401-10.79 10.644-19.154 21.81-19.154zm5.106 11.156-2.003 3.47c-.66-.279-1.367-.465-2.102-.557v-4.015c.092.005.185.009.277.015 1.357.145 2.642.527 3.828 1.087zm-5.106 16.844c-3.309 0-6-2.691-6-6s2.691-6 6-6 6 2.691 6 6-2.691 6-6 6zm-6.363-10.829-3.484-2.011c.816-1.172 1.835-2.191 3.007-3.007l2.011 3.484c-.578.44-1.094.956-1.534 1.534zm1.534 11.192-2.011 3.484c-1.172-.816-2.191-1.835-3.007-3.007l3.484-2.011c.44.578.956 1.094 1.534 1.534zm11.192-1.534 3.484 2.011c-.816 1.172-1.835 2.191-3.007 3.007l-2.011-3.484c.578-.44 1.094-.956 1.534-1.534zm-1.534-11.192 2.011-3.484c1.172.816 2.191 1.835 3.007 3.007l-3.484 2.011c-.44-.578-.956-1.094-1.534-1.534zm-5.829-5.582v4.015c-.735.092-1.442.278-2.102.557l-2.003-3.47c1.186-.56 2.471-.942 3.829-1.086.092-.008.184-.011.276-.016zm-9.844 6.839 3.47 2.003c-.279.66-.465 1.367-.557 2.102h-4.019c.122-1.458.508-2.839 1.106-4.105zm2.913 6.106c.092.735.278 1.442.557 2.102l-3.47 2.003c-.598-1.265-.984-2.646-1.106-4.106h4.019zm2.825 9.844 2.003-3.47c.66.279 1.367.465 2.102.557v4.015c-.092-.005-.185-.009-.277-.015-1.357-.145-2.642-.527-3.828-1.087zm6.106 1.101v-4.015c.735-.092 1.442-.278 2.102-.557l2.003 3.47c-1.186.56-2.471.942-3.829 1.086-.092.008-.184.011-.276.016zm9.844-6.839-3.47-2.003c.279-.66.465-1.367.557-2.102h4.019c-.122 1.458-.508 2.839-1.106 4.105zm-2.913-6.106c-.092-.735-.278-1.442-.557-2.102l3.47-2.003c.598 1.265.984 2.646 1.106 4.106h-4.019zm-21.931 1c0 3.395 1.216 6.51 3.234 8.936-5.447-2.997-9.526-7.337-10.924-8.937 1.398-1.601 5.477-5.946 10.931-8.943-2.022 2.427-3.241 5.545-3.241 8.944zm28 0c0-3.395-1.216-6.51-3.234-8.936 5.447 2.997 9.526 7.337 10.924 8.937-1.398 1.601-5.477 5.946-10.931 8.943 2.022-2.427 3.241-5.545 3.241-8.944zm-14 22c-11.166 0-20.409-8.364-21.81-19.154 3.647 3.813 11.948 11.154 21.81 11.154s18.163-7.341 21.81-11.154c-1.401 10.79-10.644 19.154-21.81 19.154z"/></svg>